<svg width="48" height="47" viewBox="0 0 48 47" fill="none" xmlns="http://www.w3.org/2000/svg">
  <g clip-path="url(#clip0_8999_33777)">
    <path d="M19.8882 8.30306C21.2361 7.98753 22.6162 7.8298 24.0007 7.83306C37.709 7.83306 45.5423 23.4997 45.5423 23.4997C44.3536 25.7236 42.9359 27.8173 41.3123 29.7468M28.1523 27.6514C27.6145 28.2286 26.9659 28.6916 26.2452 29.0127C25.5245 29.3338 24.7466 29.5064 23.9577 29.5204C23.1689 29.5343 22.3853 29.3892 21.6538 29.0937C20.9223 28.7982 20.2577 28.3584 19.6999 27.8005C19.142 27.2426 18.7022 26.5781 18.4067 25.8466C18.1112 25.115 17.9661 24.3315 17.98 23.5426C17.9939 22.7538 18.1666 21.9758 18.4877 21.2552C18.8088 20.5345 19.2718 19.8859 19.849 19.3481M35.6332 35.1322C32.2856 37.6839 28.2093 39.0976 24.0007 39.1664C10.2923 39.1664 2.45898 23.4997 2.45898 23.4997C4.89494 18.9601 8.27354 14.9939 12.3682 11.8672L35.6332 35.1322Z" stroke="#707070" stroke-width="3.91667" stroke-linecap="round" stroke-linejoin="round"/>
    <path d="M2.45898 1.95801L45.5423 45.0413" stroke="#707070" stroke-width="3.91667" stroke-linecap="round" stroke-linejoin="round"/>
  </g>
  <defs>
    <clipPath id="clip0_8999_33777">
      <rect width="47" height="47" fill="white" transform="translate(0.5)"/>
    </clipPath>
  </defs>
</svg>
