<svg width="24" height="24" viewBox="0 0 24 24" fill="none" xmlns="http://www.w3.org/2000/svg">
<g clip-path="url(#clip0_209_467)">
<path d="M21 4.00008C20.9896 3.90822 20.9695 3.81771 20.94 3.73008V3.64008C20.8921 3.52879 20.8243 3.42714 20.74 3.34008C20.6552 3.26035 20.557 3.19605 20.45 3.15008H20.36C20.2679 3.07969 20.1624 3.02867 20.05 3.00008H20C19.9006 2.985 19.7995 2.985 19.7 3.00008L1.70002 9.00008C1.49995 9.06584 1.32575 9.19309 1.20225 9.36367C1.07876 9.53426 1.01227 9.73949 1.01227 9.95008C1.01227 10.1607 1.07876 10.3659 1.20225 10.5365C1.32575 10.7071 1.49995 10.8343 1.70002 10.9001L10.23 13.7401L13.07 22.2701C13.1358 22.4702 13.263 22.6444 13.4336 22.7678C13.6042 22.8913 13.8094 22.9578 14.02 22.9578C14.2306 22.9578 14.4358 22.8913 14.6064 22.7678C14.777 22.6444 14.9043 22.4702 14.97 22.2701L20.97 4.27008C20.9923 4.18187 21.0023 4.09103 21 4.00008ZM16.3 6.29008L10.73 11.8601L5.16002 10.0001L16.3 6.29008ZM14 18.8401L12.14 13.2701L17.71 7.70008L14 18.8401Z" fill="white"/>
</g>
<defs>
<clipPath id="clip0_209_467">
<rect width="24" height="24" fill="white"/>
</clipPath>
</defs>
</svg>
