<svg width="24" height="24" viewBox="0 0 24 24" fill="none" xmlns="http://www.w3.org/2000/svg">
<g clip-path="url(#clip0_212_470)">
<path d="M22.56 16.3002L14.89 3.58018C14.5798 3.095 14.1525 2.69571 13.6475 2.41912C13.1424 2.14253 12.5758 1.99756 12 1.99756C11.4241 1.99756 10.8576 2.14253 10.3525 2.41912C9.84743 2.69571 9.42012 3.095 9.10998 3.58018L1.43998 16.3002C1.16903 16.7518 1.02177 17.2669 1.01299 17.7935C1.00421 18.3201 1.13423 18.8397 1.38998 19.3002C1.68566 19.8184 2.11364 20.2489 2.63018 20.5476C3.14672 20.8463 3.7333 21.0025 4.32998 21.0002H19.67C20.2627 21.0065 20.8467 20.8564 21.3629 20.5649C21.879 20.2735 22.3092 19.851 22.61 19.3402C22.8732 18.875 23.0074 18.3478 22.9986 17.8134C22.9898 17.2789 22.8384 16.7565 22.56 16.3002V16.3002ZM20.86 18.3502C20.7398 18.5568 20.5654 18.7266 20.3556 18.8411C20.1459 18.9557 19.9088 19.0107 19.67 19.0002H4.32998C4.0912 19.0107 3.85409 18.9557 3.64434 18.8411C3.43458 18.7266 3.26016 18.5568 3.13998 18.3502C3.05221 18.1982 3.006 18.0257 3.006 17.8502C3.006 17.6746 3.05221 17.5022 3.13998 17.3502L10.82 4.62018C10.958 4.43789 11.1363 4.29005 11.3411 4.18826C11.5458 4.08646 11.7713 4.03349 12 4.03349C12.2286 4.03349 12.4541 4.08646 12.6589 4.18826C12.8636 4.29005 13.042 4.43789 13.18 4.62018L20.85 17.3402C20.9411 17.4925 20.9901 17.6663 20.9919 17.8438C20.9936 18.0213 20.9481 18.1961 20.86 18.3502V18.3502Z" fill="#755800"/>
<path d="M12 17C12.5523 17 13 16.5523 13 16C13 15.4477 12.5523 15 12 15C11.4477 15 11 15.4477 11 16C11 16.5523 11.4477 17 12 17Z" fill="#755800"/>
<path d="M12 8C11.7348 8 11.4804 8.10536 11.2929 8.29289C11.1054 8.48043 11 8.73478 11 9V13C11 13.2652 11.1054 13.5196 11.2929 13.7071C11.4804 13.8946 11.7348 14 12 14C12.2652 14 12.5196 13.8946 12.7071 13.7071C12.8946 13.5196 13 13.2652 13 13V9C13 8.73478 12.8946 8.48043 12.7071 8.29289C12.5196 8.10536 12.2652 8 12 8Z" fill="#755800"/>
</g>
<defs>
<clipPath id="clip0_212_470">
<rect width="24" height="24" fill="white"/>
</clipPath>
</defs>
</svg>
